<svg xmlns="http://www.w3.org/2000/svg" viewBox="0 0 483 203.92"><defs><style>.cls-1{fill:#6793ff;}.cls-2{fill:#fff;}</style></defs><g id="Calque_2" data-name="Calque 2"><g id="Calque_1-2" data-name="Calque 1"><rect class="cls-1" x="5" y="5" width="473" height="161" rx="70"/><path class="cls-2" d="M408,10a65.21,65.21,0,0,1,65,65V96a65.21,65.21,0,0,1-65,65H75A65.21,65.21,0,0,1,10,96V75A65.21,65.21,0,0,1,75,10H408m0-10H75A75.22,75.22,0,0,0,0,75V96a75.22,75.22,0,0,0,75,75H408a75.22,75.22,0,0,0,75-75V75A75.22,75.22,0,0,0,408,0Z"/><rect class="cls-1" x="291" y="5" width="187" height="161" rx="70"/><path class="cls-2" d="M408,10a65.21,65.21,0,0,1,65,65V96a65.21,65.21,0,0,1-65,65H361a65.21,65.21,0,0,1-65-65V75a65.21,65.21,0,0,1,65-65h47m0-10H361a75.22,75.22,0,0,0-75,75V96a75.22,75.22,0,0,0,75,75h47a75.22,75.22,0,0,0,75-75V75A75.22,75.22,0,0,0,408,0Z"/><path class="cls-2" d="M60.48,104.8a21.54,21.54,0,0,1-3,.34c-1,0-1.94.07-2.71.07s-1.62,0-2.71-.07a19.89,19.89,0,0,1-3-.34V54a19.89,19.89,0,0,1,3-.34c1.09-.05,2-.07,2.71-.07s1.67,0,2.71.07a21.54,21.54,0,0,1,3,.34V68.46c0,1,0,2,0,2.77s0,1.71,0,2.73v9.36c0,1,0,1.9,0,2.71s0,1.75,0,2.79Zm3.71-21.4-1.2,0-1.38,0-1.21,0c-1.11,0-2.25,0-3.4,0s-2.28,0-3.4,0V73.88c1.12,0,2.25,0,3.4,0s2.29,0,3.4,0l1.21,0,1.38,0,1.2,0h9.15l1.17,0,1.39,0,1.19,0c1.11,0,2.25,0,3.42,0s2.3,0,3.42,0V83.4c-1.12,0-2.26,0-3.42,0s-2.31,0-3.42,0l-1.19,0-1.39,0-1.17,0ZM77,88.82q0-1.56,0-2.79c0-.81,0-1.72,0-2.71V74c0-1,0-1.93,0-2.73s0-1.73,0-2.77V54a21.21,21.21,0,0,1,3-.34c1-.05,1.94-.07,2.71-.07s1.62,0,2.71.07a19.89,19.89,0,0,1,3,.34V104.8a22.23,22.23,0,0,1-2.9.34c-1,0-1.86.07-2.68.07s-1.71,0-2.76-.07a22.1,22.1,0,0,1-3-.34Z"/><path class="cls-2" d="M103.63,89.86V82.21h14.6v-.86a10.23,10.23,0,0,0-.54-3.4A5.23,5.23,0,0,0,116,75.5a4.7,4.7,0,0,0-3-.91A4.21,4.21,0,0,0,108.9,77a16.43,16.43,0,0,0-1.19,7.11v3.35a23.17,23.17,0,0,0,.49,4.94,6.76,6.76,0,0,0,2,3.66,6.53,6.53,0,0,0,4.56,1.4,18.56,18.56,0,0,0,5-.69,39.35,39.35,0,0,0,4.73-1.65,9.16,9.16,0,0,1,2,3.08,14.39,14.39,0,0,1,1,3.49,20.59,20.59,0,0,1-6.67,3.14,28.36,28.36,0,0,1-7.83,1.1,17.57,17.57,0,0,1-8-1.62,12.84,12.84,0,0,1-5-4.36,18.12,18.12,0,0,1-2.61-6.21,33.66,33.66,0,0,1-.76-7.17,28.54,28.54,0,0,1,1.69-10.09,15.18,15.18,0,0,1,5.34-7.12A15.68,15.68,0,0,1,113,66.67a15.88,15.88,0,0,1,8.34,2.08,13.9,13.9,0,0,1,5.26,5.65,17.56,17.56,0,0,1,1.82,8.07,25,25,0,0,1-.93,7.39Z"/><path class="cls-2" d="M133.51,94.66a11.52,11.52,0,0,1,7.43-11.47,19.07,19.07,0,0,1,7.21-1.35c1.14,0,2.56,0,4.27.09a30,30,0,0,1,4.65.5v7.06a21.59,21.59,0,0,0-3.94-.44c-1.51,0-2.8-.08-3.87-.08a4.76,4.76,0,0,0-3.79,1.38,5.24,5.24,0,0,0-1.19,3.56,3.89,3.89,0,0,0,1,2.7,3.44,3.44,0,0,0,2.67,1.06A8.37,8.37,0,0,0,152.63,96a13.58,13.58,0,0,0,4.07-4.57l1.56,7.17a35.22,35.22,0,0,1-3.33,3.39,16.58,16.58,0,0,1-4.37,2.76,14.11,14.11,0,0,1-5.79,1.1,11.07,11.07,0,0,1-6.34-1.69,10.51,10.51,0,0,1-3.72-4.27A12.41,12.41,0,0,1,133.51,94.66Zm33.33,5a11.06,11.06,0,0,1-1.35,3.16,9.17,9.17,0,0,1-2.1,2.53,9.46,9.46,0,0,1-5.19-1.53,9.73,9.73,0,0,1-3.1-3.43,12.55,12.55,0,0,1-1.38-4v-16a5.06,5.06,0,0,0-1.24-3.73,5.19,5.19,0,0,0-3.81-1.25,20.47,20.47,0,0,0-5.3.76c-1.89.51-3.81,1.06-5.74,1.66a9.7,9.7,0,0,1-1.88-3.5,19.17,19.17,0,0,1-.87-4.2,38.83,38.83,0,0,1,5.45-1.74,57.45,57.45,0,0,1,6-1.16,40.32,40.32,0,0,1,5.39-.41,16.45,16.45,0,0,1,6.3,1.23,10.77,10.77,0,0,1,4.88,4,12.83,12.83,0,0,1,1.9,7.41V94.66a8.33,8.33,0,0,0,.48,3A4.55,4.55,0,0,0,166.84,99.71Z"/><path class="cls-2" d="M189.88,96.7a15.62,15.62,0,0,1,.9,5.28c0,.42,0,.85-.06,1.28a7.25,7.25,0,0,1-.21,1.21c-1.08.17-2.31.33-3.68.48a37.18,37.18,0,0,1-4.08.22q-4.87,0-6.93-2.43t-2.07-7.53V50.62l.53-.52h4.27c2.2,0,3.76.5,4.66,1.5s1.36,2.75,1.36,5.22V93.21a4,4,0,0,0,.74,2.6,3.05,3.05,0,0,0,2.45.89Z"/><path class="cls-2" d="M217.09,67.68a16,16,0,0,1,.48,3.9,15.69,15.69,0,0,1-.48,4l-13.64-.22-11.82.22a15.69,15.69,0,0,1-.48-4,16,16,0,0,1,.48-3.9l12.12.22Zm-19.7-4.43c0-2.47.45-4.21,1.36-5.2s2.46-1.49,4.66-1.49h4.31l.48.49V93.24a3.86,3.86,0,0,0,.77,2.55,3.08,3.08,0,0,0,2.51.91h4.31a16.36,16.36,0,0,1,.85,5.28c0,.42,0,.85,0,1.28a7.25,7.25,0,0,1-.21,1.21c-1.34.17-2.87.33-4.61.48s-3.34.22-4.83.22c-3.24,0-5.65-.81-7.21-2.43s-2.34-4.13-2.34-7.53Z"/><path class="cls-2" d="M234.26,104.8a31.05,31.05,0,0,1-5.47.41,32.71,32.71,0,0,1-5.35-.41V50.62l.52-.52h4.31c2.18,0,3.73.5,4.63,1.5s1.36,2.75,1.36,5.22Zm20.51-9.1a19.82,19.82,0,0,0,.39,4,8.9,8.9,0,0,0,1.36,3.29,10,10,0,0,1-3,1.67,11,11,0,0,1-3.87.67q-3.34,0-4.64-1.77a8.4,8.4,0,0,1-1.3-5.07V82.28a8.55,8.55,0,0,0-.71-4A2.78,2.78,0,0,0,240.31,77a7.55,7.55,0,0,0-2.84.67,11.21,11.21,0,0,0-3.18,2.1,12.07,12.07,0,0,0-2.67,3.74V73.77a34.28,34.28,0,0,1,5.7-4.64,12.73,12.73,0,0,1,7.12-2,9.39,9.39,0,0,1,5.72,1.69,10.21,10.21,0,0,1,3.46,4.65,18.53,18.53,0,0,1,1.15,6.78Z"/><path class="cls-2" d="M356.13,77.71a21,21,0,0,0-.63-5.78,8.83,8.83,0,0,0-2.58-4.44,7.52,7.52,0,0,0-5.26-1.71,7.35,7.35,0,0,0-7.1,4.54q-2.16,4.53-2.15,13.19,0,8.1,2.75,12.21a8.78,8.78,0,0,0,7.73,4.11,14.93,14.93,0,0,0,6.93-1.62,41.59,41.59,0,0,0,5.81-3.62,13.65,13.65,0,0,1,3.26,3.21,10.34,10.34,0,0,1,2,4.11,26.51,26.51,0,0,1-5.27,3.86,30.57,30.57,0,0,1-6.91,2.86,28.56,28.56,0,0,1-7.85,1.08,19.1,19.1,0,0,1-9.72-2.27,17.62,17.62,0,0,1-6.26-6,26.68,26.68,0,0,1-3.34-8.46,44.91,44.91,0,0,1-1-9.49q0-9.33,2.94-15.24a19.76,19.76,0,0,1,7.82-8.7A21.44,21.44,0,0,1,348,56.72a22.57,22.57,0,0,1,10,2.06,16.24,16.24,0,0,1,6.6,5.54A13.54,13.54,0,0,1,367,72.06c0,2.18-.56,3.78-1.69,4.78a7,7,0,0,1-4.78,1.5,13,13,0,0,1-2.25-.18Q357.21,78,356.13,77.71Z"/><path class="cls-2" d="M371.19,98.49A11.52,11.52,0,0,1,378.62,87a19.07,19.07,0,0,1,7.21-1.35c1.14,0,2.56,0,4.27.09a30,30,0,0,1,4.65.5v7.06a21.59,21.59,0,0,0-3.94-.44c-1.51,0-2.8-.08-3.87-.08a4.75,4.75,0,0,0-3.79,1.38A5.25,5.25,0,0,0,382,97.75a3.86,3.86,0,0,0,1,2.69,3.43,3.43,0,0,0,2.68,1.06,8.37,8.37,0,0,0,4.7-1.64,13.58,13.58,0,0,0,4.07-4.57l1.56,7.18a35.16,35.16,0,0,1-3.33,3.38,16.44,16.44,0,0,1-4.37,2.77,14.28,14.28,0,0,1-5.79,1.09,11.07,11.07,0,0,1-6.34-1.69,10.51,10.51,0,0,1-3.72-4.27A12.38,12.38,0,0,1,371.19,98.49Zm33.33,5.05a11.06,11.06,0,0,1-1.35,3.16,9,9,0,0,1-2.1,2.53,9.54,9.54,0,0,1-5.19-1.52,9.85,9.85,0,0,1-3.1-3.44,12.46,12.46,0,0,1-1.38-4v-16a5.06,5.06,0,0,0-1.24-3.73,5.19,5.19,0,0,0-3.81-1.25,20.91,20.91,0,0,0-5.3.76c-1.89.51-3.81,1.06-5.74,1.66a9.62,9.62,0,0,1-1.88-3.5,19.77,19.77,0,0,1-.87-4.2A40.19,40.19,0,0,1,378,72.29a57.45,57.45,0,0,1,6-1.16,40.19,40.19,0,0,1,5.39-.4,16.44,16.44,0,0,1,6.3,1.22,10.77,10.77,0,0,1,4.88,4,12.86,12.86,0,0,1,1.9,7.41V98.49a8.11,8.11,0,0,0,.49,3A4.46,4.46,0,0,0,404.52,103.54Z"/><path class="cls-2" d="M409.32,76.71a11.06,11.06,0,0,1,1.35-3.16,9.3,9.3,0,0,1,2.1-2.56,10,10,0,0,1,7.46,3.82,17,17,0,0,1,3,8.78v25a20.31,20.31,0,0,1-2.64.32c-1,.06-2,.09-2.9.09s-1.9,0-2.88-.09a21.32,21.32,0,0,1-2.66-.32V84.44a11.61,11.61,0,0,0-.95-5.17A7.05,7.05,0,0,0,409.32,76.71Zm26.68-5a23.36,23.36,0,0,1-.69,5A17.79,17.79,0,0,1,433.25,82a9.71,9.71,0,0,0-1.84-.46c-.61-.09-1.23-.17-1.88-.24a6.5,6.5,0,0,0-2.8.59,7.09,7.09,0,0,0-2.23,1.69,14.39,14.39,0,0,0-1.82,2.62,28.8,28.8,0,0,0-1.58,3.42L419.8,88a42.15,42.15,0,0,1,.8-6,21.66,21.66,0,0,1,1.85-5.46,10.4,10.4,0,0,1,3.39-4,9.23,9.23,0,0,1,5.4-1.49,14.75,14.75,0,0,1,2.64.19C434.58,71.37,435.28,71.52,436,71.69Z"/><circle class="cls-2" cx="128.84" cy="159.94" r="40.49"/><path class="cls-1" d="M128.84,123a37,37,0,1,1-37,37,37,37,0,0,1,37-37m0-7a44,44,0,1,0,44,44,44,44,0,0,0-44-44Z"/><rect class="cls-1" x="123.89" y="140.77" width="10.72" height="38.67"/><rect class="cls-1" x="123.89" y="140.77" width="10.72" height="38.67" transform="translate(-74.03 191.98) rotate(-60)"/><rect class="cls-1" x="123.89" y="140.77" width="10.72" height="38.67" transform="translate(55.21 352.09) rotate(-120)"/><circle class="cls-2" cx="349.01" cy="159.94" r="40.49" transform="translate(-34.64 145.74) rotate(-22.5)"/><path class="cls-1" d="M349,123a37,37,0,1,1-37,37,37,37,0,0,1,37-37m0-7a44,44,0,1,0,44,44,44,44,0,0,0-44-44Z"/><rect class="cls-1" x="343.32" y="140.01" width="10.72" height="38.67"/><rect class="cls-1" x="343.32" y="140.01" width="10.72" height="38.67" transform="translate(36.34 381.63) rotate(-60)"/><rect class="cls-1" x="343.32" y="140.01" width="10.72" height="38.67" transform="translate(385.02 540.98) rotate(-120)"/></g></g></svg>