<svg width="483" height="204" viewBox="0 0 483 204" fill="none" xmlns="http://www.w3.org/2000/svg">
<g clip-path="url(#clip0)">
<path d="M75 166C36.4 166 5 134.6 5 96V75C5 36.4 36.4 5 75 5H408C446.6 5 478 36.4 478 75V96C478 134.6 446.6 166 408 166H75Z" fill="#6793FF"/>
<path d="M408 10C425.3 10 441.6 16.8 453.9 29.1C466.2 41.4 473 57.7 473 75V96C473 113.3 466.2 129.6 453.9 141.9C441.6 154.2 425.3 161 408 161H75C57.7 161 41.4 154.2 29.1 141.9C16.8 129.6 10 113.3 10 96V75C10 57.7 16.8 41.4 29.1 29.1C41.4 16.8 57.7 10 75 10H408ZM408 0H75C33.8 0 0 33.8 0 75V96C0 137.2 33.8 171 75 171H408C449.2 171 483 137.2 483 96V75C483 33.8 449.2 0 408 0Z" fill="white"/>
<path d="M361 166C322.4 166 291 134.6 291 96V75C291 36.4 322.4 5 361 5H408C446.6 5 478 36.4 478 75V96C478 134.6 446.6 166 408 166H361Z" fill="#6793FF"/>
<path d="M408 10C425.3 10 441.6 16.8 453.9 29.1C466.2 41.4 473 57.7 473 75V96C473 113.3 466.2 129.6 453.9 141.9C441.6 154.2 425.3 161 408 161H361C343.7 161 327.4 154.2 315.1 141.9C302.8 129.6 296 113.3 296 96V75C296 57.7 302.8 41.4 315.1 29.1C327.4 16.8 343.7 10 361 10H408ZM408 0H361C319.8 0 286 33.8 286 75V96C286 137.2 319.8 171 361 171H408C449.2 171 483 137.2 483 96V75C483 33.8 449.2 0 408 0Z" fill="white"/>
<path d="M60.5 104.8C59.6 105 58.6 105.1 57.5 105.1C56.5 105.1 55.6 105.2 54.8 105.2C54.1 105.2 53.2 105.2 52.1 105.1C51 105 50 104.9 49.1 104.8V54.0001C50 53.8001 51 53.7001 52.1 53.7001C53.2 53.7001 54.1 53.6001 54.8 53.6001C55.6 53.6001 56.5 53.6001 57.5 53.7001C58.5 53.7001 59.5 53.9001 60.5 54.0001V68.4001C60.5 69.4001 60.5 70.4001 60.5 71.2001C60.5 72.0001 60.5 72.9001 60.5 73.9001V83.3001C60.5 84.3001 60.5 85.2001 60.5 86.0001C60.5 86.8001 60.5 87.7001 60.5 88.8001V104.8ZM64.2 83.4001C63.9 83.4001 63.5 83.4001 63 83.4001C62.5 83.4001 62.1 83.4001 61.6 83.4001C61.1 83.4001 60.7 83.4001 60.4 83.4001C59.3 83.4001 58.2 83.4001 57 83.4001C55.8 83.4001 54.7 83.4001 53.6 83.4001V73.9001C54.7 73.9001 55.8 73.9001 57 73.9001C58.2 73.9001 59.3 73.9001 60.4 73.9001C60.7 73.9001 61.2 73.9001 61.6 73.9001C62.1 73.9001 62.5 73.9001 63 73.9001C63.5 73.9001 63.9 73.9001 64.2 73.9001H73.3C73.6 73.9001 74 73.9001 74.5 73.9001C75 73.9001 75.4 73.9001 75.9 73.9001C76.4 73.9001 76.8 73.9001 77.1 73.9001C78.2 73.9001 79.4 73.9001 80.5 73.9001C81.7 73.9001 82.8 73.9001 83.9 73.9001V83.4001C82.8 83.4001 81.6 83.4001 80.5 83.4001C79.3 83.4001 78.2 83.4001 77.1 83.4001C76.8 83.4001 76.4 83.4001 75.9 83.4001C75.4 83.4001 75 83.4001 74.5 83.4001C74 83.4001 73.6 83.4001 73.3 83.4001H64.2ZM77 88.8001C77 87.8001 77 86.8001 77 86.0001C77 85.2001 77 84.3001 77 83.3001V74.0001C77 73.0001 77 72.1001 77 71.3001C77 70.5001 77 69.6001 77 68.5001V54.0001C77.9 53.8001 78.9 53.7001 80 53.7001C81 53.7001 81.9 53.6001 82.7 53.6001C83.4 53.6001 84.3 53.6001 85.4 53.7001C86.5 53.7001 87.5 53.9001 88.4 54.0001V104.8C87.4 105 86.5 105.1 85.5 105.1C84.5 105.1 83.6 105.2 82.8 105.2C82 105.2 81.1 105.2 80 105.1C78.9 105 77.9 104.9 77 104.8V88.8001Z" fill="white"/>
<path d="M103.6 89.9V82.2H118.2V81.3C118.2 80.1 118 78.9 117.7 77.9C117.3 76.9 116.8 76.1 116 75.4C115.2 74.8 114.2 74.5 113 74.5C111.1 74.5 109.7 75.3 108.9 76.9C108.1 78.5 107.7 80.8 107.7 84V87.3C107.7 89.1 107.9 90.7 108.2 92.2C108.5 93.7 109.2 94.9 110.2 95.9C111.2 96.8 112.7 97.3 114.8 97.3C116.5 97.3 118.2 97.1 119.8 96.6C121.4 96.1 123 95.6 124.5 94.9C125.3 95.7 126 96.7 126.5 98C127 99.2 127.3 100.4 127.5 101.5C125.6 102.9 123.4 103.9 120.8 104.6C118.2 105.3 115.6 105.7 113 105.7C109.8 105.7 107.1 105.2 105 104.1C102.9 103 101.2 101.6 100 99.7C98.8 97.9 97.9 95.8 97.4 93.5C96.9 91.2 96.6 88.8 96.6 86.3C96.6 82.6 97.2 79.2 98.3 76.2C99.4 73.2 101.2 70.8 103.6 69.1C106 67.3 109.2 66.5 113 66.5C116.3 66.5 119.1 67.2 121.3 68.6C123.6 70 125.3 71.9 126.6 74.2C127.8 76.6 128.4 79.3 128.4 82.3C128.4 83.9 128.3 85.2 128.2 86.3C128.1 87.4 127.8 88.5 127.5 89.7H103.6V89.9Z" fill="white"/>
<path d="M133.5 94.7001C133.5 91.8001 134.2 89.3001 135.5 87.4001C136.9 85.5001 138.7 84.1001 140.9 83.2001C143.1 82.3001 145.5 81.8001 148.1 81.8001C149.2 81.8001 150.7 81.8001 152.4 81.9001C154.1 82.0001 155.7 82.1001 157 82.4001V89.5001C155.9 89.3001 154.6 89.1001 153.1 89.1001C151.6 89.1001 150.3 89.0001 149.2 89.0001C147.5 89.0001 146.2 89.5001 145.4 90.4001C144.6 91.3001 144.2 92.5001 144.2 94.0001C144.2 95.1001 144.5 96.0001 145.2 96.7001C145.8 97.4001 146.7 97.8001 147.9 97.8001C149.4 97.8001 151 97.3001 152.6 96.2001C154.2 95.1001 155.6 93.6001 156.7 91.6001L158.3 98.8001C157.3 99.9001 156.2 101.1 155 102.2C153.7 103.3 152.3 104.2 150.6 105C148.9 105.7 147 106.1 144.8 106.1C142.2 106.1 140.1 105.5 138.5 104.4C136.8 103.3 135.6 101.8 134.8 100.1C133.9 98.2001 133.5 96.4001 133.5 94.7001ZM166.8 99.7001C166.6 100.7 166.1 101.7 165.4 102.9C164.7 104 164 104.9 163.3 105.4C161.2 105.3 159.5 104.8 158.1 103.9C156.7 103 155.7 101.8 155 100.5C154.3 99.1001 153.8 97.8001 153.6 96.5001V80.5001C153.6 78.8001 153.2 77.6001 152.4 76.8001C151.6 76.0001 150.3 75.6001 148.6 75.6001C147 75.6001 145.2 75.9001 143.3 76.4001C141.4 76.9001 139.5 77.5001 137.6 78.1001C136.8 77.2001 136.2 76.0001 135.7 74.6001C135.2 73.2001 134.9 71.8001 134.8 70.4001C136.4 69.7001 138.3 69.1001 140.2 68.7001C142.2 68.2001 144.2 67.8001 146.2 67.5001C148.2 67.2001 150 67.1001 151.6 67.1001C153.8 67.1001 155.9 67.5001 157.9 68.3001C159.9 69.1001 161.5 70.4001 162.8 72.3001C164.1 74.1001 164.7 76.6001 164.7 79.7001V94.8001C164.7 95.9001 164.9 96.9001 165.2 97.8001C165.6 98.5001 166.1 99.2001 166.8 99.7001Z" fill="white"/>
<path d="M189.9 96.7001C190.5 98.4001 190.8 100.1 190.8 102C190.8 102.4 190.8 102.8 190.7 103.3C190.7 103.7 190.6 104.1 190.5 104.5C189.4 104.7 188.2 104.8 186.8 105C185.4 105.1 184.1 105.2 182.7 105.2C179.5 105.2 177.1 104.4 175.8 102.8C174.4 101.2 173.7 98.7001 173.7 95.3001V50.6001L174.2 50.1001H178.5C180.7 50.1001 182.3 50.6001 183.2 51.6001C184.1 52.6001 184.6 54.3001 184.6 56.8001V93.2001C184.6 94.3001 184.8 95.2001 185.3 95.8001C185.8 96.4001 186.6 96.7001 187.8 96.7001H189.9Z" fill="white"/>
<path d="M217.1 67.7001C217.4 69.0001 217.6 70.3001 217.6 71.6001C217.6 73.1001 217.4 74.4001 217.1 75.6001L203.5 75.4001L191.7 75.6001C191.4 74.4001 191.2 73.0001 191.2 71.6001C191.2 70.3001 191.4 69.0001 191.7 67.7001L203.8 67.9001L217.1 67.7001ZM197.4 63.3001C197.4 60.8001 197.9 59.1001 198.8 58.1001C199.7 57.1001 201.3 56.6001 203.5 56.6001H207.8L208.3 57.1001V93.3001C208.3 94.4001 208.6 95.2001 209.1 95.8001C209.6 96.4001 210.4 96.7001 211.6 96.7001H215.9C216.5 98.4001 216.8 100.1 216.8 102C216.8 102.4 216.8 102.8 216.7 103.3C216.7 103.7 216.6 104.1 216.5 104.5C215.2 104.7 213.6 104.8 211.9 105C210.2 105.1 208.6 105.2 207.1 105.2C203.9 105.2 201.5 104.4 199.9 102.8C198.3 101.2 197.6 98.7001 197.6 95.3001V63.3001H197.4Z" fill="white"/>
<path d="M234.3 104.8C232.8 105.1 230.9 105.2 228.8 105.2C226.9 105.2 225.1 105.1 223.4 104.8V50.6001L223.9 50.1001H228.2C230.4 50.1001 231.9 50.6001 232.8 51.6001C233.7 52.6001 234.2 54.3001 234.2 56.8001V104.8H234.3ZM254.8 95.7001C254.8 97.1001 254.9 98.5001 255.2 99.7001C255.5 101 255.9 102 256.6 103C255.8 103.7 254.8 104.2 253.6 104.7C252.4 105.1 251.1 105.4 249.7 105.4C247.5 105.4 245.9 104.8 245.1 103.6C244.2 102.4 243.8 100.7 243.8 98.5001V82.3001C243.8 80.5001 243.6 79.2001 243.1 78.3001C242.6 77.4001 241.7 77.0001 240.4 77.0001C239.6 77.0001 238.6 77.2001 237.6 77.7001C236.5 78.1001 235.5 78.8001 234.4 79.8001C233.4 80.8001 232.5 82.0001 231.7 83.5001V73.7001C233.4 72.0001 235.3 70.4001 237.4 69.1001C239.5 67.7001 241.9 67.1001 244.5 67.1001C246.8 67.1001 248.7 67.7001 250.2 68.8001C251.7 69.9001 252.9 71.5001 253.7 73.4001C254.5 75.4001 254.9 77.6001 254.9 80.2001V95.7001H254.8Z" fill="white"/>
<path d="M356.1 77.6999C356.1 75.6999 355.9 73.7 355.5 71.9C355 70.1 354.2 68.6 352.9 67.5C351.6 66.4 349.9 65.8 347.6 65.8C344.3 65.8 341.9 67.3 340.5 70.3C339.1 73.3 338.3 77.7 338.3 83.5C338.3 88.9 339.2 92.9999 341.1 95.6999C342.9 98.3999 345.5 99.8 348.8 99.8C351.3 99.8 353.6 99.2999 355.7 98.1999C357.8 97.0999 359.7 95.8999 361.5 94.5999C362.6 95.2999 363.7 96.4 364.8 97.8C365.9 99.2 366.5 100.6 366.8 101.9C365.4 103.3 363.6 104.6 361.5 105.8C359.4 107 357.1 107.9 354.6 108.7C352.1 109.4 349.5 109.8 346.8 109.8C342.9 109.8 339.7 109 337.1 107.5C334.5 106 332.4 104 330.8 101.4C329.2 98.9 328.1 96.1 327.5 92.9C326.8 89.8 326.5 86.6 326.5 83.4C326.5 77.2 327.5 72.0999 329.4 68.1999C331.4 64.2999 334 61.4 337.2 59.5C340.5 57.6 344 56.7 348 56.7C351.8 56.7 355.1 57.3999 358 58.7999C360.8 60.1999 363 62 364.6 64.3C366.2 66.6 366.9 69.2 366.9 72C366.9 74.2 366.3 75.8 365.2 76.8C364.1 77.8 362.5 78.3 360.4 78.3C359.6 78.3 358.8 78.1999 358.1 78.0999C357.6 77.9999 356.9 77.8999 356.1 77.6999Z" fill="white"/>
<path d="M371.2 98.4999C371.2 95.5999 371.9 93.0999 373.2 91.1999C374.6 89.2999 376.4 87.8999 378.6 86.9999C380.8 86.0999 383.2 85.5999 385.8 85.5999C386.9 85.5999 388.4 85.5999 390.1 85.6999C391.8 85.7999 393.4 85.8999 394.7 86.1999V93.2999C393.6 93.0999 392.3 92.8999 390.8 92.8999C389.3 92.8999 388 92.7999 386.9 92.7999C385.2 92.7999 383.9 93.2999 383.1 94.1999C382.3 95.0999 381.9 96.2999 381.9 97.7999C381.9 98.8999 382.2 99.7999 382.9 100.5C383.5 101.2 384.4 101.6 385.6 101.6C387.1 101.6 388.7 101.1 390.3 99.9999C391.9 98.8999 393.3 97.3999 394.4 95.3999L396 102.6C395 103.7 393.9 104.9 392.7 106C391.4 107.1 390 108 388.3 108.8C386.6 109.5 384.7 109.9 382.5 109.9C379.9 109.9 377.8 109.3 376.2 108.2C374.5 107.1 373.3 105.6 372.5 103.9C371.6 102 371.2 100.3 371.2 98.4999ZM404.5 103.5C404.3 104.5 403.8 105.5 403.1 106.7C402.4 107.8 401.7 108.7 401 109.2C398.9 109.1 397.2 108.6 395.8 107.7C394.4 106.8 393.4 105.6 392.7 104.3C392 102.9 391.5 101.6 391.3 100.3V84.2999C391.3 82.5999 390.9 81.3999 390.1 80.5999C389.3 79.7999 388 79.3999 386.3 79.3999C384.7 79.3999 382.9 79.6999 381 80.1999C379.1 80.6999 377.2 81.2999 375.3 81.8999C374.5 80.9999 373.9 79.7999 373.4 78.3999C372.9 76.9999 372.6 75.5999 372.5 74.1999C374.1 73.4999 375.9 72.8999 377.9 72.4999C379.9 71.9999 381.9 71.5999 383.9 71.2999C385.9 70.9999 387.7 70.8999 389.3 70.8999C391.5 70.8999 393.6 71.2999 395.6 72.0999C397.6 72.8999 399.2 74.1999 400.5 76.0999C401.8 77.8999 402.4 80.3999 402.4 83.4999V98.5999C402.4 99.6999 402.6 100.7 402.9 101.6C403.2 102.3 403.8 103 404.5 103.5Z" fill="white"/>
<path d="M409.3 76.6999C409.5 75.6999 410 74.6999 410.7 73.4999C411.4 72.3999 412.1 71.4999 412.8 70.8999C416.1 71.1999 418.6 72.4999 420.3 74.6999C422 76.8999 423 79.8999 423.3 83.4999V108.5C422.5 108.6 421.7 108.8 420.7 108.8C419.7 108.9 418.7 108.9 417.8 108.9C416.9 108.9 415.9 108.9 414.9 108.8C413.9 108.7 413 108.6 412.2 108.5V84.3999C412.2 82.1999 411.9 80.4999 411.3 79.1999C410.6 77.9999 409.9 77.1999 409.3 76.6999ZM436 71.6999C436 72.9999 435.8 74.6999 435.3 76.6999C434.8 78.6999 434.2 80.4999 433.2 81.9999C432.6 81.7999 432 81.5999 431.4 81.4999C430.8 81.3999 430.2 81.2999 429.5 81.2999C428.5 81.2999 427.5 81.4999 426.7 81.8999C425.9 82.2999 425.1 82.8999 424.5 83.5999C423.8 84.2999 423.2 85.1999 422.7 86.1999C422.1 87.1999 421.6 88.3999 421.1 89.5999L419.8 87.8999C419.9 85.8999 420.2 83.8999 420.6 81.8999C421 79.8999 421.6 78.0999 422.5 76.3999C423.3 74.7999 424.5 73.3999 425.9 72.3999C427.3 71.3999 429.1 70.8999 431.3 70.8999C432.4 70.8999 433.2 70.9999 433.9 71.0999C434.6 71.3999 435.3 71.4999 436 71.6999Z" fill="white"/>
<path d="M128.8 200.4C151.168 200.4 169.3 182.267 169.3 159.9C169.3 137.532 151.168 119.4 128.8 119.4C106.432 119.4 88.3 137.532 88.3 159.9C88.3 182.267 106.432 200.4 128.8 200.4Z" fill="white"/>
<path d="M128.8 122.9C149.2 122.9 165.8 139.5 165.8 159.9C165.8 180.3 149.2 196.9 128.8 196.9C108.4 196.9 91.8 180.3 91.8 159.9C91.9 139.5 108.4 122.9 128.8 122.9ZM128.8 115.9C104.5 115.9 84.8 135.6 84.8 159.9C84.8 184.2 104.5 203.9 128.8 203.9C153.1 203.9 172.8 184.2 172.8 159.9C172.8 135.6 153.1 115.9 128.8 115.9Z" fill="#6793FF"/>
<path d="M134.6 140.8H123.9V179.5H134.6V140.8Z" fill="#6793FF"/>
<path d="M115.199 145.82L109.849 155.086L143.363 174.436L148.713 165.17L115.199 145.82Z" fill="#6793FF"/>
<path d="M109.845 165.128L115.195 174.394L148.71 155.044L143.36 145.778L109.845 165.128Z" fill="#6793FF"/>
<path d="M364.497 197.324C385.162 188.764 394.975 165.072 386.415 144.407C377.855 123.741 354.163 113.928 333.498 122.488C312.833 131.048 303.019 154.74 311.579 175.405C320.14 196.071 343.831 205.884 364.497 197.324Z" fill="white"/>
<path d="M349 122.9C369.4 122.9 386 139.5 386 159.9C386 180.3 369.4 196.9 349 196.9C328.6 196.9 312 180.3 312 159.9C312 139.5 328.6 122.9 349 122.9ZM349 115.9C324.7 115.9 305 135.6 305 159.9C305 184.2 324.7 203.9 349 203.9C373.3 203.9 393 184.2 393 159.9C393 135.6 373.3 115.9 349 115.9Z" fill="#6793FF"/>
<path d="M354 140H343.3V178.7H354V140Z" fill="#6793FF"/>
<path d="M334.582 145.07L329.232 154.337L362.746 173.687L368.096 164.42L334.582 145.07Z" fill="#6793FF"/>
<path d="M329.259 164.415L334.609 173.682L368.123 154.332L362.773 145.065L329.259 164.415Z" fill="#6793FF"/>
</g>
<defs>
<clipPath id="clip0">
<rect width="483" height="203.9" fill="white"/>
</clipPath>
</defs>
</svg>
