<svg width="225" height="92" viewBox="0 0 225 92" fill="none" xmlns="http://www.w3.org/2000/svg">
<g clip-path="url(#clip0)">
<path d="M34.9476 72.0026C16.9502 72.0026 2.35596 58.4069 2.35596 41.6408V32.5566C2.35596 15.7906 16.9502 2.19479 34.9476 2.19479H190.052C208.05 2.19479 222.644 15.7906 222.644 32.5566V41.6408C222.644 58.4069 208.05 72.0026 190.052 72.0026H34.9476Z" fill="white"/>
<path d="M190.052 4.32869C198.102 4.32869 205.694 7.25514 211.453 12.6203C217.212 17.9854 220.353 25.0577 220.353 32.5567V41.6408C220.353 49.1398 217.212 56.2121 211.453 61.5772C205.694 66.9424 198.102 69.8688 190.052 69.8688H34.9476C26.8979 69.8688 19.3063 66.9424 13.5471 61.5772C7.78796 56.2121 4.6466 49.1398 4.6466 41.6408V32.5567C4.6466 25.0577 7.78796 17.9854 13.5471 12.6203C19.3063 7.25514 26.8979 4.32869 34.9476 4.32869H190.052ZM190.052 0H34.9476C15.7068 0 0 14.6322 0 32.5567V41.6408C0 59.5653 15.7068 74.1975 34.9476 74.1975H190.052C209.293 74.1975 225 59.5653 225 41.6408V32.5567C225 14.6322 209.228 0 190.052 0Z" fill="#6793FF"/>
<path d="M168.128 72.0026C150.131 72.0026 135.537 58.4069 135.537 41.6408V32.5566C135.537 15.7906 150.131 2.19479 168.128 2.19479H189.987C207.984 2.19479 222.579 15.7906 222.579 32.5566V41.6408C222.579 58.4069 207.984 72.0026 189.987 72.0026H168.128Z" fill="white"/>
<path d="M190.052 4.32869C198.102 4.32869 205.694 7.25514 211.453 12.6203C217.212 17.9854 220.353 25.0577 220.353 32.5567V41.6408C220.353 49.1398 217.212 56.2121 211.453 61.5772C205.694 66.9424 198.102 69.8688 190.052 69.8688H168.194C160.144 69.8688 152.552 66.9424 146.793 61.5772C141.034 56.2121 137.893 49.1398 137.893 41.6408V32.5567C137.893 25.0577 141.034 17.9854 146.793 12.6203C152.552 7.25514 160.144 4.32869 168.194 4.32869H190.052ZM190.052 0H168.194C148.953 0 133.246 14.6322 133.246 32.5567V41.6408C133.246 59.5653 148.953 74.1975 168.194 74.1975H190.052C209.293 74.1975 225 59.5653 225 41.6408V32.5567C225 14.6322 209.228 0 190.052 0Z" fill="#6793FF"/>
<path d="M28.1412 45.4819C27.6831 45.5429 27.225 45.6038 26.7669 45.6038C26.3088 45.6038 25.8507 45.6648 25.5234 45.6648C25.1962 45.6648 24.7381 45.6648 24.28 45.6038C23.7564 45.6038 23.2983 45.5429 22.9056 45.4819V23.4726C23.2983 23.4116 23.7564 23.3507 24.28 23.3507C24.8035 23.3507 25.1962 23.2897 25.5234 23.2897C25.8507 23.2897 26.3088 23.2897 26.7669 23.3507C27.225 23.3507 27.6831 23.4116 28.1412 23.4726V29.7523C28.1412 30.179 28.1412 30.6058 28.1412 30.9716C28.1412 31.3374 28.1412 31.7032 28.1412 32.13V36.2148C28.1412 36.6416 28.1412 37.0074 28.1412 37.3732C28.1412 37.739 28.1412 38.1048 28.1412 38.5926V45.4819ZM29.9083 36.2148C29.7774 36.2148 29.581 36.2148 29.3192 36.2148C29.1229 36.2148 28.8611 36.2148 28.6648 36.2148C28.4685 36.2148 28.2721 36.2148 28.0758 36.2148C27.5522 36.2148 27.0287 36.2148 26.5051 36.2148C25.9816 36.2148 25.458 36.2148 24.9344 36.2148V32.069C25.458 32.069 25.9816 32.069 26.5051 32.069C27.0287 32.069 27.5522 32.069 28.0758 32.069C28.2067 32.069 28.403 32.069 28.6648 32.069C28.8611 32.069 29.1229 32.069 29.3192 32.069C29.5156 32.069 29.7119 32.069 29.9083 32.069H34.1622C34.2931 32.069 34.4894 32.069 34.6857 32.069C34.8821 32.069 35.1439 32.069 35.3402 32.069C35.5365 32.069 35.7329 32.069 35.8637 32.069C36.3873 32.069 36.9109 32.069 37.4344 32.069C37.958 32.069 38.4815 32.069 39.0051 32.069V36.2148C38.4815 36.2148 37.958 36.2148 37.4344 36.2148C36.9109 36.2148 36.3873 36.2148 35.8637 36.2148C35.7329 36.2148 35.5365 36.2148 35.3402 36.2148C35.1439 36.2148 34.8821 36.2148 34.6857 36.2148C34.4894 36.2148 34.2931 36.2148 34.1622 36.2148H29.9083ZM35.8637 38.5316C35.8637 38.1048 35.8637 37.678 35.8637 37.3122C35.8637 36.9464 35.8637 36.5806 35.8637 36.1539V32.069C35.8637 31.6423 35.8637 31.2155 35.8637 30.9106C35.8637 30.5448 35.8637 30.179 35.8637 29.6913V23.4726C36.3219 23.4116 36.78 23.3507 37.2381 23.3507C37.6962 23.3507 38.1543 23.2897 38.4815 23.2897C38.8088 23.2897 39.2669 23.2897 39.725 23.3507C40.2486 23.3507 40.7067 23.4116 41.0993 23.4726V45.4819C40.6412 45.5429 40.1831 45.6038 39.725 45.6038C39.2669 45.6038 38.8742 45.6648 38.4815 45.6648C38.0889 45.6648 37.6962 45.6648 37.1726 45.6038C36.7145 45.6038 36.191 45.5429 35.7329 45.4819V38.5316H35.8637Z" fill="#6793FF"/>
<path d="M48.2983 39.0193V35.727H55.1045V35.3612C55.1045 34.8125 55.0391 34.3248 54.8427 33.898C54.6464 33.4712 54.3846 33.1054 54.0574 32.8616C53.7302 32.6177 53.2066 32.4957 52.6831 32.4957C51.7668 32.4957 51.1778 32.8616 50.7852 33.5322C50.3925 34.2028 50.2616 35.2393 50.2616 36.6415V38.1048C50.2616 38.8973 50.327 39.568 50.4579 40.2386C50.5888 40.9093 50.916 41.397 51.3742 41.8238C51.8323 42.2506 52.5522 42.4335 53.4684 42.4335C54.2537 42.4335 55.0391 42.3115 55.8244 42.1286C56.6098 41.9457 57.3297 41.7018 58.0495 41.397C58.4422 41.7628 58.7694 42.1896 58.9658 42.7383C59.2276 43.287 59.3585 43.7747 59.4239 44.2625C58.5731 44.8722 57.526 45.2989 56.348 45.6038C55.17 45.9086 53.9265 46.0915 52.6831 46.0915C51.1778 46.0915 49.9344 45.8476 48.9527 45.3599C47.971 44.8722 47.1857 44.2625 46.5967 43.4699C46.0077 42.6773 45.615 41.7628 45.3532 40.7873C45.0914 39.8119 45.026 38.7754 45.026 37.678C45.026 36.0319 45.2878 34.5686 45.8113 33.2883C46.3349 32.008 47.1857 30.9716 48.2983 30.179C49.4108 29.3864 50.916 29.0206 52.6831 29.0206C54.1883 29.0206 55.4972 29.3254 56.5443 29.9351C57.5914 30.5448 58.4422 31.3374 58.9658 32.3738C59.5548 33.4103 59.8166 34.5686 59.8166 35.849C59.8166 36.5196 59.7511 37.1293 59.6857 37.5561C59.6202 38.0438 59.4893 38.5315 59.3584 39.0193H48.2983Z" fill="#6793FF"/>
<path d="M62.1727 41.0922C62.1727 39.8119 62.5 38.7754 63.1544 37.9219C63.8089 37.1293 64.5942 36.5196 65.6413 36.0928C66.6884 35.727 67.801 35.4832 68.979 35.4832C69.5026 35.4832 70.157 35.4832 70.9424 35.5441C71.7277 35.5441 72.4476 35.6661 73.1021 35.788V38.8364C72.5785 38.7144 71.9895 38.6535 71.2696 38.6535C70.5497 38.6535 69.9607 38.5925 69.5026 38.5925C68.7172 38.5925 68.1282 38.7754 67.7356 39.2022C67.3429 39.629 67.212 40.1167 67.212 40.7264C67.212 41.2141 67.3429 41.5799 67.6701 41.8847C67.9973 42.1896 68.39 42.3725 68.9136 42.3725C69.6335 42.3725 70.3534 42.1286 71.0733 41.6409C71.7932 41.1531 72.4476 40.4825 72.9712 39.629L73.6911 42.7383C73.2329 43.226 72.7094 43.7138 72.1204 44.2015C71.5314 44.6893 70.8769 45.116 70.0916 45.4209C69.3062 45.7257 68.39 45.9086 67.4083 45.9086C66.2303 45.9086 65.2486 45.6647 64.4633 45.177C63.678 44.6893 63.089 44.0796 62.7617 43.348C62.3691 42.6164 62.1727 41.8238 62.1727 41.0922ZM77.6832 43.287C77.5523 43.7138 77.356 44.1405 77.0288 44.6283C76.7015 45.116 76.3743 45.4818 76.0471 45.7257C75.0654 45.6647 74.2801 45.4818 73.6256 45.0551C72.9712 44.6283 72.5131 44.1405 72.1858 43.5918C71.8586 42.9822 71.6623 42.4335 71.5314 41.8847V34.9345C71.5314 34.2028 71.335 33.6541 70.9424 33.2883C70.5497 32.9225 69.9607 32.7396 69.1754 32.7396C68.39 32.7396 67.6047 32.8616 66.6884 33.0445C65.8377 33.2883 64.9214 33.5322 64.0052 33.7761C63.6125 33.4103 63.3507 32.8616 63.1544 32.2519C62.9581 31.6422 62.8272 31.0325 62.7617 30.4229C63.5471 30.118 64.3979 29.8741 65.3141 29.6912C66.2303 29.4474 67.1466 29.3254 68.0628 29.2035C68.979 29.0816 69.8298 29.0206 70.5497 29.0206C71.5968 29.0206 72.5785 29.2035 73.4947 29.5693C74.411 29.9351 75.1963 30.4838 75.7853 31.2764C76.3743 32.069 76.6361 33.1664 76.6361 34.5077V41.0922C76.6361 41.5799 76.7015 42.0067 76.8324 42.3725C77.0942 42.7383 77.356 43.0431 77.6832 43.287Z" fill="#6793FF"/>
<path d="M88.4162 41.9457C88.678 42.6773 88.8089 43.4699 88.8089 44.2625C88.8089 44.4454 88.8089 44.6283 88.8089 44.8112C88.8089 44.9941 88.7434 45.177 88.7434 45.3599C88.2199 45.4209 87.6963 45.4818 87.0418 45.5428C86.3874 45.6038 85.7984 45.6647 85.1439 45.6647C83.6387 45.6647 82.5261 45.2989 81.9371 44.6283C81.2827 43.8967 80.9554 42.8602 80.9554 41.336V21.9484L81.2172 21.7045H83.1806C84.2277 21.7045 84.9476 21.9484 85.3403 22.3751C85.7329 22.8019 85.9947 23.5945 85.9947 24.6309V40.4215C85.9947 40.9093 86.1256 41.2751 86.3219 41.5799C86.5837 41.8238 86.911 41.9457 87.4345 41.9457H88.4162Z" fill="#6793FF"/>
<path d="M101.113 29.3864C101.243 29.9351 101.309 30.4839 101.309 31.0935C101.309 31.7032 101.243 32.3129 101.113 32.8616L94.7644 32.7396L89.267 32.8616C89.1361 32.3129 89.0707 31.7642 89.0707 31.0935C89.0707 30.5448 89.1361 29.9351 89.267 29.3864L94.8953 29.5084L101.113 29.3864ZM91.9503 27.4355C91.9503 26.3381 92.1466 25.6064 92.6047 25.1797C92.9974 24.7529 93.7827 24.509 94.7644 24.509H96.7932L96.9895 24.6919V40.4216C96.9895 40.9093 97.1204 41.2751 97.3168 41.519C97.5785 41.7628 97.9712 41.8848 98.4948 41.8848H100.524C100.785 42.6164 100.916 43.409 100.916 44.2015C100.916 44.3844 100.916 44.5673 100.916 44.7503C100.916 44.9332 100.851 45.1161 100.851 45.299C100.196 45.3599 99.5419 45.4209 98.6911 45.4819C97.9058 45.5428 97.1204 45.6038 96.466 45.6038C94.9607 45.6038 93.8482 45.238 93.1283 44.5673C92.4084 43.8357 92.0157 42.7993 92.0157 41.2751V27.4355H91.9503Z" fill="#6793FF"/>
<path d="M109.097 45.4818C108.377 45.6038 107.526 45.6647 106.545 45.6647C105.694 45.6647 104.843 45.6038 104.058 45.4818V21.9484L104.319 21.7045H106.348C107.395 21.7045 108.115 21.9484 108.508 22.3751C108.901 22.8019 109.162 23.5945 109.162 24.6309V45.4818H109.097ZM118.652 41.5189C118.652 42.1286 118.717 42.7383 118.848 43.287C118.979 43.8357 119.175 44.3235 119.503 44.6893C119.11 44.9941 118.652 45.238 118.128 45.4209C117.539 45.6038 116.95 45.7257 116.296 45.7257C115.249 45.7257 114.529 45.4818 114.136 44.9331C113.743 44.4454 113.547 43.7138 113.547 42.7383V35.727C113.547 34.9345 113.416 34.3857 113.22 34.0199C113.024 33.6541 112.565 33.4712 111.976 33.4712C111.584 33.4712 111.126 33.5932 110.668 33.7761C110.144 33.959 109.686 34.2638 109.162 34.6906C108.639 35.1174 108.246 35.6661 107.919 36.3367V32.069C108.704 31.3374 109.62 30.6667 110.602 30.057C111.584 29.4474 112.696 29.1425 113.94 29.1425C114.987 29.1425 115.903 29.3864 116.623 29.8741C117.343 30.3619 117.866 31.0325 118.259 31.8861C118.586 32.7396 118.783 33.7151 118.783 34.8125V41.5189H118.652Z" fill="#6793FF"/>
<path d="M165.903 33.715C165.903 32.8615 165.838 32.0079 165.641 31.2153C165.445 30.4228 165.052 29.8131 164.463 29.2644C163.874 28.7766 163.089 28.5328 162.042 28.5328C160.537 28.5328 159.424 29.2034 158.704 30.4837C158.05 31.825 157.723 33.715 157.723 36.2147C157.723 38.5314 158.181 40.2995 159.031 41.5189C159.882 42.6772 161.06 43.2869 162.631 43.2869C163.809 43.2869 164.856 43.043 165.838 42.5553C166.819 42.0676 167.736 41.5798 168.521 40.9701C169.045 41.275 169.568 41.7627 170.026 42.3724C170.484 42.9821 170.812 43.5918 170.942 44.1405C170.288 44.7501 169.437 45.2988 168.455 45.8475C167.474 46.3353 166.427 46.7621 165.249 47.0669C164.071 47.3717 162.827 47.5546 161.584 47.5546C159.751 47.5546 158.246 47.2498 157.068 46.5792C155.825 45.9085 154.908 45.055 154.123 43.9576C153.403 42.8601 152.88 41.6408 152.552 40.2995C152.225 38.9582 152.094 37.556 152.094 36.1537C152.094 33.4711 152.552 31.2763 153.469 29.5692C154.385 27.8621 155.563 26.5818 157.134 25.7892C158.639 24.9967 160.34 24.5699 162.173 24.5699C163.94 24.5699 165.51 24.8747 166.819 25.4844C168.128 26.0941 169.175 26.8867 169.895 27.8621C170.615 28.8376 171.008 29.996 171.008 31.2153C171.008 32.1908 170.746 32.8615 170.223 33.2882C169.699 33.715 168.979 33.9589 167.997 33.9589C167.605 33.9589 167.277 33.9589 166.95 33.8979C166.558 33.8369 166.23 33.776 165.903 33.715Z" fill="#6793FF"/>
<path d="M172.906 42.7382C172.906 41.4579 173.233 40.4215 173.887 39.5679C174.542 38.7754 175.327 38.1657 176.374 37.7389C177.421 37.3731 178.534 37.1292 179.712 37.1292C180.236 37.1292 180.89 37.1292 181.675 37.1902C182.461 37.1902 183.181 37.3121 183.835 37.4341V40.4825C183.311 40.3605 182.722 40.2996 182.003 40.2996C181.283 40.2996 180.694 40.2386 180.17 40.2386C179.385 40.2386 178.796 40.4215 178.403 40.8483C178.01 41.275 177.88 41.7628 177.88 42.3724C177.88 42.8602 178.01 43.226 178.338 43.5308C178.665 43.8357 179.058 44.0186 179.581 44.0186C180.301 44.0186 181.021 43.7747 181.741 43.287C182.461 42.7992 183.115 42.1286 183.639 41.275L184.359 44.3844C183.9 44.8721 183.377 45.3599 182.788 45.8476C182.199 46.3353 181.544 46.7621 180.759 47.0669C179.974 47.3718 179.058 47.5547 178.076 47.5547C176.898 47.5547 175.916 47.3108 175.131 46.8231C174.346 46.3353 173.757 45.7257 173.429 44.9941C173.102 44.2624 172.906 43.5308 172.906 42.7382ZM188.416 44.9331C188.285 45.3599 188.089 45.7866 187.762 46.2744C187.434 46.7621 187.107 47.1279 186.78 47.3718C185.798 47.3108 185.013 47.1279 184.359 46.7011C183.704 46.2744 183.246 45.7866 182.919 45.2379C182.592 44.6282 182.395 44.0795 182.264 43.5308V36.5805C182.264 35.8489 182.068 35.3002 181.675 34.9344C181.283 34.5686 180.694 34.3857 179.908 34.3857C179.123 34.3857 178.338 34.5076 177.421 34.6905C176.571 34.9344 175.654 35.1783 174.738 35.4222C174.346 35.0563 174.084 34.5076 173.887 33.898C173.691 33.2883 173.56 32.6786 173.495 32.0689C174.28 31.7641 175.131 31.5202 176.047 31.3373C176.963 31.0935 177.88 30.9715 178.796 30.8496C179.712 30.7277 180.563 30.6667 181.283 30.6667C182.33 30.6667 183.311 30.8496 184.228 31.2154C185.144 31.5812 185.929 32.1299 186.518 32.9225C187.107 33.7151 187.369 34.8125 187.369 36.1538V42.7382C187.369 43.226 187.435 43.6528 187.565 44.0186C187.827 44.3844 188.089 44.6892 188.416 44.9331Z" fill="#6793FF"/>
<path d="M190.641 33.2882C190.772 32.8614 190.969 32.4346 191.296 31.9469C191.623 31.4592 191.95 31.0934 192.278 30.8495C193.783 30.9714 194.961 31.5201 195.746 32.4956C196.532 33.4711 196.99 34.7514 197.121 36.2756V47.1278C196.793 47.1888 196.335 47.2498 195.877 47.2498C195.419 47.2498 194.961 47.3107 194.503 47.3107C194.045 47.3107 193.587 47.3107 193.128 47.2498C192.67 47.2498 192.278 47.1888 191.885 47.1278V36.6414C191.885 35.6659 191.754 34.9343 191.427 34.3856C191.23 33.8369 190.969 33.4711 190.641 33.2882ZM203.076 31.0934C203.076 31.6421 202.945 32.3737 202.749 33.2882C202.552 34.1417 202.225 34.9343 201.767 35.605C201.505 35.483 201.178 35.422 200.916 35.422C200.655 35.422 200.327 35.3611 200.066 35.3001C199.607 35.3001 199.149 35.3611 198.757 35.544C198.364 35.7269 198.037 35.9708 197.71 36.2756C197.382 36.5804 197.121 36.9462 196.859 37.434C196.597 37.8608 196.335 38.3485 196.139 38.8972L195.55 38.1656C195.615 37.312 195.746 36.3975 195.943 35.544C196.139 34.6904 196.401 33.8979 196.793 33.1662C197.186 32.4346 197.71 31.8859 198.364 31.4592C199.018 31.0324 199.869 30.7885 200.851 30.7885C201.374 30.7885 201.767 30.7885 202.094 30.8495C202.422 30.9714 202.749 31.0324 203.076 31.0934Z" fill="#6793FF"/>
<path d="M63.6087 88.449C73.3597 84.6863 77.9901 74.2721 73.951 65.1883C69.9119 56.1044 58.7329 51.7908 48.982 55.5536C39.231 59.3163 34.6006 69.7305 38.6397 78.8143C42.6787 87.8982 53.8578 92.2118 63.6087 88.449Z" fill="#6793FF"/>
<path d="M56.2827 55.4804C66.0341 55.4804 73.9529 62.8575 73.9529 71.9416C73.9529 81.0258 66.0341 88.4029 56.2827 88.4029C46.5314 88.4029 38.6126 81.0258 38.6126 71.9416C38.6126 62.9184 46.5314 55.4804 56.2827 55.4804ZM56.2827 52.9198C44.9608 52.9198 35.7985 61.4552 35.7985 72.0026C35.7985 82.55 44.9608 91.0854 56.2827 91.0854C67.6047 91.0854 76.767 82.55 76.767 72.0026C76.767 61.4552 67.6047 52.9198 56.2827 52.9198Z" fill="white"/>
<path d="M58.966 63.65H53.9922V80.4161H58.966V63.65Z" fill="white"/>
<path d="M49.9067 65.8412L47.4198 69.8539L63.0055 78.2369L65.4924 74.2242L49.9067 65.8412Z" fill="white"/>
<path d="M47.4137 74.244L49.9006 78.2566L65.4864 69.8736L62.9995 65.861L47.4137 74.244Z" fill="white"/>
<path d="M161.649 90.1709C171.878 90.1709 180.17 82.4461 180.17 72.9171C180.17 63.3881 171.878 55.6633 161.649 55.6633C151.42 55.6633 143.128 63.3881 143.128 72.9171C143.128 82.4461 151.42 90.1709 161.649 90.1709Z" fill="#6793FF"/>
<path d="M161.649 57.4923C170.812 57.4923 178.207 64.4426 178.207 72.9171C178.207 81.3916 170.746 88.3419 161.649 88.3419C152.552 88.3419 145.092 81.3916 145.092 72.9171C145.092 64.4426 152.487 57.4923 161.649 57.4923ZM161.649 53.8343C150.327 53.8343 141.165 62.3697 141.165 72.9171C141.165 83.4645 150.327 91.9999 161.649 91.9999C172.971 91.9999 182.133 83.4645 182.133 72.9171C182.133 62.3697 172.971 53.8343 161.649 53.8343Z" fill="white"/>
<path d="M163.94 64.2597H158.966V81.0258H163.94V64.2597Z" fill="white"/>
<path d="M154.919 66.4593L152.432 70.4719L168.018 78.8549L170.505 74.8423L154.919 66.4593Z" fill="white"/>
<path d="M152.452 74.8333L154.939 78.8459L170.525 70.4629L168.038 66.4503L152.452 74.8333Z" fill="white"/>
</g>
<defs>
<clipPath id="clip0">
<rect width="225" height="92" fill="white"/>
</clipPath>
</defs>
</svg>
